<?xml version="1.0" encoding="utf-8"?>
<svg version="1.1" id="Ebene_1" xmlns="http://www.w3.org/2000/svg" xmlns:xlink="http://www.w3.org/1999/xlink" x="0px" y="0px"
	 viewBox="0 0 277.6 72" style="enable-background:new 0 0 277.6 72;" xml:space="preserve">
<style type="text/css">
	.st0{fill:#253583;}
	.st1{fill:#C2D129;}
	.st2{fill:#253583;stroke:#253583;stroke-width:2;}
	.st3{fill:none;stroke:#253583;stroke-width:4;stroke-miterlimit:10;}
</style>
<g>
	<g>
		<path class="st0" d="M119.3,13.2c1.2,0,2.3,0.1,3.3,0.3c0.9,0.2,1.6,0.4,2.1,0.6l-1,4.4c-0.5-0.2-1.1-0.4-1.7-0.6
			c-0.7-0.1-1.4-0.2-2.1-0.2c-0.9,0-1.6,0.1-2.2,0.4c-0.6,0.2-1.1,0.6-1.4,1s-0.6,1-0.7,1.6c-0.1,0.6-0.2,1.3-0.2,2v1.5h8.4v4.4
			h-8.4v18.6h-5.3V22.7c0-3,0.8-5.3,2.3-7C113.8,14,116.1,13.2,119.3,13.2z"/>
		<path class="st0" d="M135.2,23.8c1.8,0,3.2,0.2,4.4,0.7c1.2,0.4,2.2,1.1,2.9,1.8c0.7,0.8,1.2,1.8,1.5,2.9c0.3,1.1,0.5,2.4,0.5,3.7
			v13.9c-0.8,0.2-2.1,0.4-3.7,0.6s-3.5,0.4-5.6,0.4c-1.4,0-2.6-0.1-3.8-0.4c-1.1-0.3-2.1-0.7-2.9-1.3c-0.8-0.6-1.4-1.3-1.9-2.3
			c-0.5-0.9-0.7-2.1-0.7-3.5c0-1.3,0.3-2.4,0.8-3.3c0.5-0.9,1.2-1.6,2.1-2.2c0.9-0.6,1.9-1,3.1-1.2c1.2-0.2,2.4-0.4,3.6-0.4
			c0.6,0,1.2,0,1.8,0.1c0.6,0.1,1.3,0.2,2.1,0.4v-0.9c0-0.6-0.1-1.2-0.2-1.8c-0.1-0.6-0.4-1-0.8-1.5c-0.4-0.4-0.9-0.8-1.5-1
			c-0.6-0.2-1.4-0.4-2.3-0.4c-1.2,0-2.4,0.1-3.4,0.3c-1,0.2-1.9,0.4-2.5,0.6l-0.7-4.3c0.7-0.2,1.7-0.5,2.9-0.7
			C132.3,23.9,133.7,23.8,135.2,23.8z M135.6,43.6c1.6,0,2.9-0.1,3.7-0.3v-5.9c-0.3-0.1-0.7-0.2-1.3-0.3c-0.6-0.1-1.2-0.1-1.8-0.1
			c-0.6,0-1.2,0-1.8,0.1c-0.6,0.1-1.1,0.3-1.6,0.5c-0.5,0.2-0.9,0.6-1.2,1c-0.3,0.4-0.4,1-0.4,1.6c0,1.3,0.4,2.1,1.2,2.6
			S134.2,43.6,135.6,43.6z"/>
		<path class="st0" d="M156.9,17.6c0,1-0.3,1.8-1,2.4c-0.6,0.6-1.4,0.9-2.3,0.9c-0.9,0-1.7-0.3-2.3-0.9c-0.6-0.6-1-1.4-1-2.4
			c0-1,0.3-1.8,1-2.4c0.6-0.6,1.4-0.9,2.3-0.9c0.9,0,1.6,0.3,2.3,0.9C156.6,15.8,156.9,16.6,156.9,17.6z M156.4,47.3H151v-23h5.3
			V47.3z"/>
		<path class="st0" d="M176.2,29.1c-0.4-0.1-1-0.3-1.8-0.5c-0.8-0.2-1.7-0.2-2.7-0.2c-0.6,0-1.2,0.1-1.9,0.2
			c-0.7,0.1-1.1,0.2-1.4,0.3v18.4h-5.3V25.4c1-0.4,2.3-0.7,3.8-1.1c1.5-0.3,3.2-0.5,5.1-0.5c0.4,0,0.8,0,1.2,0.1
			c0.5,0,0.9,0.1,1.4,0.2c0.5,0.1,0.9,0.2,1.4,0.3c0.4,0.1,0.8,0.2,1.1,0.3L176.2,29.1z"/>
		<path class="st0" d="M188.9,47.8c-1.6,0-2.9-0.2-3.9-0.5c-1-0.3-1.9-0.8-2.5-1.4c-0.6-0.6-1-1.3-1.3-2.2c-0.3-0.9-0.4-1.9-0.4-3.1
			V14.1l5.3-0.9v26.4c0,0.6,0.1,1.2,0.2,1.6c0.1,0.4,0.3,0.8,0.6,1.1c0.3,0.3,0.6,0.5,1.1,0.7c0.5,0.2,1,0.3,1.7,0.4L188.9,47.8z"/>
		<path class="st0" d="M214.7,35.8c0,1.8-0.3,3.5-0.8,5s-1.3,2.8-2.2,3.8c-1,1.1-2.1,1.9-3.5,2.5c-1.4,0.6-2.9,0.9-4.5,0.9
			c-1.6,0-3.1-0.3-4.5-0.9c-1.3-0.6-2.5-1.4-3.5-2.5c-1-1.1-1.7-2.3-2.3-3.8s-0.8-3.2-0.8-5c0-1.8,0.3-3.5,0.8-5
			c0.5-1.5,1.3-2.8,2.3-3.8c1-1.1,2.1-1.9,3.5-2.4c1.3-0.6,2.8-0.9,4.4-0.9s3.1,0.3,4.5,0.9c1.4,0.6,2.5,1.4,3.5,2.4
			c1,1.1,1.7,2.3,2.3,3.8C214.5,32.3,214.7,34,214.7,35.8z M209.3,35.8c0-2.3-0.5-4.1-1.5-5.4c-1-1.3-2.4-2-4.1-2s-3.1,0.7-4.1,2
			c-1,1.3-1.5,3.1-1.5,5.4c0,2.3,0.5,4.2,1.5,5.5s2.4,2,4.1,2s3.1-0.7,4.1-2C208.8,40,209.3,38.1,209.3,35.8z"/>
		<path class="st0" d="M239.3,45c0,3.7-0.9,6.4-2.8,8.1c-1.9,1.7-4.7,2.6-8.6,2.6c-1.4,0-2.8-0.1-4.1-0.4c-1.3-0.2-2.5-0.5-3.6-0.9
			l1-4.5c0.9,0.4,1.9,0.7,3.1,0.9c1.2,0.2,2.4,0.4,3.8,0.4c2.1,0,3.7-0.4,4.6-1.3s1.4-2.2,1.4-3.9V45c-0.5,0.3-1.2,0.5-2.1,0.8
			c-0.9,0.3-1.9,0.4-3,0.4c-1.5,0-2.8-0.2-4-0.7c-1.2-0.5-2.3-1.2-3.1-2.1c-0.9-0.9-1.5-2-2-3.4c-0.5-1.4-0.7-2.9-0.7-4.7
			c0-1.7,0.3-3.2,0.8-4.6c0.5-1.4,1.3-2.6,2.2-3.6c1-1,2.2-1.8,3.6-2.3c1.4-0.6,3-0.8,4.8-0.8c1.7,0,3.4,0.1,4.9,0.4
			c1.6,0.3,2.9,0.5,4,0.8V45z M224.4,35.2c0,2.3,0.5,3.9,1.5,5s2.3,1.6,3.8,1.6c0.8,0,1.6-0.1,2.4-0.4s1.4-0.5,1.8-0.8V28.6
			c-0.4-0.1-0.9-0.2-1.4-0.2c-0.6-0.1-1.3-0.1-2.1-0.1c-1.9,0-3.4,0.6-4.4,1.9C224.9,31.5,224.4,33.2,224.4,35.2z"/>
		<path class="st0" d="M252,17.6c0,1-0.3,1.8-1,2.4c-0.6,0.6-1.4,0.9-2.3,0.9c-0.9,0-1.7-0.3-2.3-0.9c-0.6-0.6-1-1.4-1-2.4
			c0-1,0.3-1.8,1-2.4c0.6-0.6,1.4-0.9,2.3-0.9c0.9,0,1.6,0.3,2.3,0.9C251.6,15.8,252,16.6,252,17.6z M251.4,47.3h-5.3v-23h5.3V47.3z
			"/>
		<path class="st0" d="M258.2,25.1c1-0.3,2.4-0.6,4-0.8c1.6-0.3,3.5-0.4,5.5-0.4c1.9,0,3.4,0.3,4.7,0.8c1.3,0.5,2.3,1.2,3,2.2
			c0.7,0.9,1.3,2,1.6,3.3c0.3,1.3,0.5,2.7,0.5,4.3v12.9h-5.3V35.2c0-1.2-0.1-2.3-0.2-3.1c-0.2-0.9-0.4-1.6-0.8-2.1
			c-0.4-0.5-0.9-0.9-1.5-1.2c-0.6-0.2-1.4-0.4-2.3-0.4c-0.7,0-1.4,0-2.1,0.1s-1.3,0.2-1.6,0.2v18.6h-5.3V25.1z"/>
	</g>
	<g>
		<path class="st1" d="M59.9,0C43,0.1,29.3,13.8,29.4,30.7c0.1,16.9,13.8,30.5,30.7,30.5C77,61.1,90.6,47.5,90.6,30.6
			C90.6,13.7,76.9,0,60,0C60,0,59.9,0,59.9,0z M64.6,34.9v6.7c0,2.6-2.1,4.8-4.8,4.8s-4.8-2.1-4.8-4.8v-6.7
			c-2.9-2.6-3.1-7.1-0.4-9.9c2.6-2.9,7.1-3.1,9.9-0.4c2.9,2.6,3.1,7.1,0.4,9.9c0,0,0,0,0,0C64.9,34.6,64.8,34.8,64.6,34.9L64.6,34.9
			z"/>
		<path class="st2" d="M16.6,46.6c-4.1,0-8.1-1.6-11-4.5l0,0c-6.1-6.1-6.1-16,0-22.1s16-6.1,22.1,0c1.5,1.5,2.7,3.4,3.5,5.4h26.3
			c3.2,0,5.8,2.5,5.9,5.7c0,3.2-2.5,5.8-5.7,5.9v3.4c0,2.8-2.3,5.1-5.1,5.1h-7.4c-2.8,0-5-2.2-5.1-5v-3.5h-9
			C28.6,42.8,22.9,46.6,16.6,46.6z M7.5,40.1c5.1,5,13.3,5,18.3-0.1c1.4-1.4,2.4-3.1,3.1-4.9l0.3-0.9h13.6v6c0,1.3,1.1,2.3,2.4,2.3
			h7.4c1.3,0,2.4-1.1,2.4-2.4v-6h2.6c1.7,0,3.1-1.4,3.1-3.1c0-1.7-1.4-3.1-3.1-3.1H29.2l-0.3-0.9c-2.2-6.8-9.5-10.5-16.3-8.3
			c-1.9,0.6-3.7,1.7-5.1,3.1C2.4,26.9,2.4,35.1,7.5,40.1L7.5,40.1z"/>
		<circle class="st3" cx="11.3" cy="31" r="3.2"/>
	</g>
	<g>
		<path class="st0" d="M184.5,67.9c0.5,0,0.8-0.1,1-0.2c0.2-0.1,0.3-0.3,0.3-0.6c0-0.3-0.1-0.5-0.4-0.6s-0.6-0.4-1.2-0.6
			c-0.3-0.1-0.6-0.2-0.9-0.4c-0.3-0.1-0.5-0.3-0.7-0.5c-0.2-0.2-0.4-0.4-0.5-0.7s-0.2-0.6-0.2-0.9c0-0.7,0.3-1.3,0.8-1.7
			c0.5-0.4,1.3-0.6,2.2-0.6c0.5,0,0.9,0,1.3,0.1s0.7,0.2,0.9,0.2L187,63c-0.2-0.1-0.5-0.2-0.8-0.2c-0.3-0.1-0.7-0.1-1.1-0.1
			c-0.4,0-0.7,0.1-0.9,0.2c-0.2,0.1-0.3,0.3-0.3,0.6c0,0.1,0,0.2,0.1,0.3c0,0.1,0.1,0.2,0.2,0.3c0.1,0.1,0.3,0.2,0.4,0.3
			c0.2,0.1,0.4,0.2,0.7,0.3c0.4,0.2,0.8,0.3,1.1,0.5c0.3,0.2,0.5,0.3,0.7,0.5c0.2,0.2,0.3,0.4,0.4,0.7c0.1,0.3,0.1,0.6,0.1,0.9
			c0,0.8-0.3,1.3-0.8,1.7s-1.3,0.6-2.4,0.6c-0.7,0-1.2-0.1-1.7-0.2s-0.7-0.2-0.9-0.3l0.3-1.5c0.3,0.1,0.6,0.2,1,0.3
			C183.6,67.9,184,67.9,184.5,67.9z"/>
		<path class="st0" d="M191.4,59.1c0,0.3-0.1,0.6-0.3,0.8c-0.2,0.2-0.5,0.3-0.8,0.3c-0.3,0-0.6-0.1-0.8-0.3s-0.3-0.5-0.3-0.8
			c0-0.4,0.1-0.6,0.3-0.8s0.5-0.3,0.8-0.3c0.3,0,0.6,0.1,0.8,0.3C191.3,58.5,191.4,58.7,191.4,59.1z M191.2,69.2h-1.8v-7.8h1.8V69.2
			z"/>
		<path class="st0" d="M193.5,61.6c0.4-0.1,0.8-0.2,1.4-0.3s1.2-0.1,1.9-0.1c0.6,0,1.2,0.1,1.6,0.3s0.8,0.4,1,0.7
			c0.3,0.3,0.4,0.7,0.5,1.1c0.1,0.4,0.2,0.9,0.2,1.5v4.4h-1.8v-4.1c0-0.4,0-0.8-0.1-1.1c-0.1-0.3-0.1-0.5-0.3-0.7
			c-0.1-0.2-0.3-0.3-0.5-0.4s-0.5-0.1-0.8-0.1c-0.2,0-0.5,0-0.7,0c-0.3,0-0.4,0.1-0.6,0.1v6.3h-1.8V61.6z"/>
		<path class="st0" d="M208.8,68.4c0,1.3-0.3,2.2-1,2.7c-0.6,0.6-1.6,0.9-2.9,0.9c-0.5,0-0.9,0-1.4-0.1s-0.9-0.2-1.2-0.3l0.3-1.5
			c0.3,0.1,0.7,0.2,1.1,0.3c0.4,0.1,0.8,0.1,1.3,0.1c0.7,0,1.3-0.2,1.6-0.5c0.3-0.3,0.5-0.7,0.5-1.3v-0.3c-0.2,0.1-0.4,0.2-0.7,0.3
			s-0.6,0.1-1,0.1c-0.5,0-1-0.1-1.4-0.2c-0.4-0.2-0.8-0.4-1.1-0.7c-0.3-0.3-0.5-0.7-0.7-1.2c-0.2-0.5-0.2-1-0.2-1.6
			c0-0.6,0.1-1.1,0.3-1.6c0.2-0.5,0.4-0.9,0.8-1.2c0.3-0.3,0.7-0.6,1.2-0.8c0.5-0.2,1-0.3,1.6-0.3c0.6,0,1.1,0,1.7,0.1
			c0.5,0.1,1,0.2,1.3,0.3V68.4z M203.7,65.1c0,0.8,0.2,1.3,0.5,1.7c0.3,0.4,0.8,0.5,1.3,0.5c0.3,0,0.6,0,0.8-0.1
			c0.3-0.1,0.5-0.2,0.6-0.3v-4.1c-0.1,0-0.3-0.1-0.5-0.1c-0.2,0-0.4,0-0.7,0c-0.7,0-1.2,0.2-1.5,0.7
			C203.9,63.8,203.7,64.4,203.7,65.1z"/>
		<path class="st0" d="M213.8,69.4c-0.5,0-1-0.1-1.3-0.2c-0.4-0.1-0.6-0.3-0.8-0.5c-0.2-0.2-0.4-0.5-0.4-0.8c-0.1-0.3-0.1-0.7-0.1-1
			v-9l1.8-0.3v9c0,0.2,0,0.4,0.1,0.6c0,0.1,0.1,0.3,0.2,0.4c0.1,0.1,0.2,0.2,0.4,0.2c0.2,0.1,0.4,0.1,0.6,0.1L213.8,69.4z"/>
		<path class="st0" d="M215.1,65.3c0-0.7,0.1-1.3,0.3-1.8c0.2-0.5,0.5-1,0.8-1.3c0.3-0.3,0.7-0.6,1.2-0.8c0.4-0.2,0.9-0.3,1.4-0.3
			c1.1,0,1.9,0.3,2.5,1c0.6,0.7,0.9,1.7,0.9,3c0,0.1,0,0.2,0,0.3c0,0.1,0,0.2,0,0.3H217c0,0.6,0.3,1.1,0.7,1.5
			c0.4,0.3,1,0.5,1.7,0.5c0.4,0,0.8,0,1.2-0.1s0.7-0.2,0.9-0.3l0.2,1.5c-0.1,0-0.2,0.1-0.4,0.2c-0.2,0.1-0.4,0.1-0.6,0.1
			c-0.2,0-0.5,0.1-0.7,0.1c-0.3,0-0.5,0-0.8,0c-0.7,0-1.3-0.1-1.8-0.3s-0.9-0.5-1.3-0.9c-0.3-0.4-0.6-0.8-0.7-1.3
			S215.1,65.9,215.1,65.3z M220.4,64.5c0-0.3,0-0.5-0.1-0.7c-0.1-0.2-0.2-0.4-0.3-0.6s-0.3-0.3-0.5-0.4c-0.2-0.1-0.4-0.1-0.7-0.1
			c-0.3,0-0.5,0.1-0.7,0.2c-0.2,0.1-0.4,0.2-0.5,0.4c-0.1,0.2-0.3,0.4-0.3,0.6c-0.1,0.2-0.1,0.4-0.2,0.7H220.4z"/>
		<path class="st0" d="M223.3,64.1h4v1.7h-4V64.1z"/>
		<path class="st0" d="M230.8,67.9c0.5,0,0.8-0.1,1-0.2s0.3-0.3,0.3-0.6c0-0.3-0.1-0.5-0.4-0.6s-0.6-0.4-1.2-0.6
			c-0.3-0.1-0.6-0.2-0.9-0.4c-0.3-0.1-0.5-0.3-0.7-0.5c-0.2-0.2-0.4-0.4-0.5-0.7s-0.2-0.6-0.2-0.9c0-0.7,0.3-1.3,0.8-1.7
			c0.5-0.4,1.3-0.6,2.2-0.6c0.5,0,0.9,0,1.3,0.1s0.7,0.2,0.9,0.2l-0.3,1.5c-0.2-0.1-0.5-0.2-0.8-0.2c-0.3-0.1-0.7-0.1-1.1-0.1
			c-0.4,0-0.7,0.1-0.9,0.2c-0.2,0.1-0.3,0.3-0.3,0.6c0,0.1,0,0.2,0.1,0.3c0,0.1,0.1,0.2,0.2,0.3c0.1,0.1,0.3,0.2,0.4,0.3
			s0.4,0.2,0.7,0.3c0.4,0.2,0.8,0.3,1.1,0.5c0.3,0.2,0.5,0.3,0.7,0.5c0.2,0.2,0.3,0.4,0.4,0.7c0.1,0.3,0.1,0.6,0.1,0.9
			c0,0.8-0.3,1.3-0.8,1.7s-1.3,0.6-2.4,0.6c-0.7,0-1.2-0.1-1.7-0.2c-0.4-0.1-0.7-0.2-0.9-0.3l0.3-1.5c0.3,0.1,0.6,0.2,1,0.3
			C229.9,67.9,230.3,67.9,230.8,67.9z"/>
		<path class="st0" d="M237.7,59.1c0,0.3-0.1,0.6-0.3,0.8c-0.2,0.2-0.5,0.3-0.8,0.3c-0.3,0-0.6-0.1-0.8-0.3
			c-0.2-0.2-0.3-0.5-0.3-0.8c0-0.4,0.1-0.6,0.3-0.8c0.2-0.2,0.5-0.3,0.8-0.3c0.3,0,0.6,0.1,0.8,0.3
			C237.6,58.5,237.7,58.7,237.7,59.1z M237.5,69.2h-1.8v-7.8h1.8V69.2z"/>
		<path class="st0" d="M246.3,68.4c0,1.3-0.3,2.2-1,2.7c-0.6,0.6-1.6,0.9-2.9,0.9c-0.5,0-0.9,0-1.4-0.1s-0.9-0.2-1.2-0.3l0.3-1.5
			c0.3,0.1,0.7,0.2,1.1,0.3c0.4,0.1,0.8,0.1,1.3,0.1c0.7,0,1.3-0.2,1.6-0.5c0.3-0.3,0.5-0.7,0.5-1.3v-0.3c-0.2,0.1-0.4,0.2-0.7,0.3
			s-0.6,0.1-1,0.1c-0.5,0-1-0.1-1.4-0.2c-0.4-0.2-0.8-0.4-1.1-0.7c-0.3-0.3-0.5-0.7-0.7-1.2s-0.2-1-0.2-1.6c0-0.6,0.1-1.1,0.3-1.6
			c0.2-0.5,0.4-0.9,0.8-1.2s0.7-0.6,1.2-0.8c0.5-0.2,1-0.3,1.6-0.3c0.6,0,1.1,0,1.7,0.1c0.5,0.1,1,0.2,1.3,0.3V68.4z M241.3,65.1
			c0,0.8,0.2,1.3,0.5,1.7c0.3,0.4,0.8,0.5,1.3,0.5c0.3,0,0.6,0,0.8-0.1c0.3-0.1,0.5-0.2,0.6-0.3v-4.1c-0.1,0-0.3-0.1-0.5-0.1
			c-0.2,0-0.4,0-0.7,0c-0.7,0-1.2,0.2-1.5,0.7C241.4,63.8,241.3,64.4,241.3,65.1z"/>
		<path class="st0" d="M248.6,61.6c0.3-0.1,0.8-0.2,1.4-0.3c0.6-0.1,1.2-0.1,1.9-0.1c0.6,0,1.2,0.1,1.6,0.3c0.4,0.2,0.8,0.4,1,0.7
			c0.3,0.3,0.4,0.7,0.5,1.1c0.1,0.4,0.2,0.9,0.2,1.5v4.4h-1.8v-4.1c0-0.4,0-0.8-0.1-1.1c-0.1-0.3-0.1-0.5-0.3-0.7
			c-0.1-0.2-0.3-0.3-0.5-0.4s-0.5-0.1-0.8-0.1c-0.2,0-0.5,0-0.7,0c-0.3,0-0.4,0.1-0.6,0.1v6.3h-1.8V61.6z"/>
		<path class="st0" d="M256.6,64.1h4v1.7h-4V64.1z"/>
		<path class="st0" d="M269.2,65.3c0,0.6-0.1,1.2-0.3,1.7c-0.2,0.5-0.4,0.9-0.8,1.3c-0.3,0.4-0.7,0.6-1.2,0.8s-1,0.3-1.5,0.3
			c-0.6,0-1.1-0.1-1.5-0.3s-0.9-0.5-1.2-0.8c-0.3-0.4-0.6-0.8-0.8-1.3c-0.2-0.5-0.3-1.1-0.3-1.7s0.1-1.2,0.3-1.7
			c0.2-0.5,0.4-0.9,0.8-1.3s0.7-0.6,1.2-0.8c0.5-0.2,1-0.3,1.5-0.3c0.5,0,1.1,0.1,1.5,0.3c0.5,0.2,0.9,0.5,1.2,0.8s0.6,0.8,0.8,1.3
			C269.1,64.1,269.2,64.7,269.2,65.3z M267.4,65.3c0-0.8-0.2-1.4-0.5-1.9s-0.8-0.7-1.4-0.7c-0.6,0-1.1,0.2-1.4,0.7s-0.5,1.1-0.5,1.9
			c0,0.8,0.2,1.4,0.5,1.9s0.8,0.7,1.4,0.7c0.6,0,1.1-0.2,1.4-0.7S267.4,66.1,267.4,65.3z"/>
		<path class="st0" d="M271.1,61.6c0.3-0.1,0.8-0.2,1.4-0.3c0.6-0.1,1.2-0.1,1.9-0.1c0.6,0,1.2,0.1,1.6,0.3c0.4,0.2,0.8,0.4,1,0.7
			c0.3,0.3,0.4,0.7,0.5,1.1c0.1,0.4,0.2,0.9,0.2,1.5v4.4h-1.8v-4.1c0-0.4,0-0.8-0.1-1.1c-0.1-0.3-0.1-0.5-0.3-0.7
			c-0.1-0.2-0.3-0.3-0.5-0.4s-0.5-0.1-0.8-0.1c-0.2,0-0.5,0-0.7,0c-0.3,0-0.4,0.1-0.6,0.1v6.3h-1.8V61.6z"/>
	</g>
</g>
</svg>
