<?xml version="1.0" encoding="utf-8"?>
<!-- Generator: Adobe Illustrator 27.4.0, SVG Export Plug-In . SVG Version: 6.00 Build 0)  -->
<svg version="1.1" id="Layer_1" xmlns="http://www.w3.org/2000/svg" xmlns:xlink="http://www.w3.org/1999/xlink" x="0px" y="0px"
	 viewBox="0 0 250.6 128" style="enable-background:new 0 0 250.6 128;" xml:space="preserve">
<style type="text/css">
	.st0{fill:#00C8F8;}
	.st1{opacity:0.45;fill:#0072DB;enable-background:new    ;}
	.st2{fill:#0072DB;}
	.st3{fill:none;stroke:#F050F8;stroke-width:3;stroke-linecap:round;stroke-miterlimit:10;}
	.st4{fill:#F050F8;}
</style>
<g>
	<path class="st0" d="M41.8,55.5h-25v68.8h25V55.5z"/>
	<path class="st1" d="M41.8,55.5H29.3v68.8h12.5V55.5z"/>
</g>
<g>
	<path class="st0" d="M78.4,66.9h-25v57.4h25V66.9z"/>
	<path class="st1" d="M78.4,66.9H65.9v57.4h12.5V66.9z"/>
</g>
<g>
	<path class="st0" d="M114.9,37.2h-25v87.2h25V37.2z"/>
	<path class="st1" d="M114.9,37.2h-12.5v87.2h12.5V37.2z"/>
</g>
<g>
	<path class="st0" d="M151.4,46.3h-25v78h25V46.3z"/>
	<path class="st1" d="M151.4,46.3h-12.5v78h12.5V46.3z"/>
</g>
<g>
	<path class="st0" d="M187.9,79h-25v45.3h25V79z"/>
	<path class="st1" d="M187.9,79h-12.5v45.3h12.5V79z"/>
</g>
<g>
	<path class="st0" d="M224.4,31.8h-25v92.6h25V31.8z"/>
	<path class="st1" d="M224.4,31.8h-12.5v92.6h12.5V31.8z"/>
</g>
<path class="st2" d="M245.7,125.6H3.3c-0.7,0-1.3-0.6-1.3-1.3s0.6-1.3,1.3-1.3h242.4c0.7,0,1.3,0.6,1.3,1.3S246.4,125.6,245.7,125.6
	z"/>
<g>
	<g>
		<polyline class="st3" points="6.6,39.9 29.3,34.9 65.9,45.9 102.4,16.2 138.9,25.3 175.4,58 211.9,10.8 230.8,19.3 		"/>
		<g>
			<polygon class="st4" points="216.7,26.4 215.7,23.5 229.8,18.8 224,5.2 226.8,4 233.8,20.6 			"/>
		</g>
	</g>
</g>
</svg>
