<?xml version="1.0" encoding="iso-8859-1"?>
<!-- Uploaded to: SVG Repo, www.svgrepo.com, Generator: SVG Repo Mixer Tools -->
<svg height="800px" width="800px" version="1.1" id="Layer_1" xmlns="http://www.w3.org/2000/svg" xmlns:xlink="http://www.w3.org/1999/xlink" 
	 viewBox="0 0 512 512" xml:space="preserve">
<path style="fill:#AB91EA;" d="M512,256.006C512,397.402,397.394,512.004,256.004,512C114.606,512.004,0,397.402,0,256.006
	C-0.007,114.61,114.606,0,256.004,0C397.394,0,512,114.614,512,256.006z"/>
<path style="fill:#947ADB;" d="M509.06,294.925L342.898,128.763c-0.001-0.001-0.001-0.001-0.002-0.001l-1.667-1.667
	c-0.666-0.668-1.462-1.2-2.347-1.569c-0.88-0.368-1.83-0.566-2.803-0.566H88.56c-4.02,0-7.28,3.26-7.28,7.28v247.52
	c0,2.443,1.282,4.499,3.129,5.82c0.468,0.654,119.459,119.645,120.113,120.113c0.385,0.539,0.866,0.965,1.374,1.374
	c16.208,3.216,32.955,4.934,50.108,4.933C384.163,512.003,490.315,417.845,509.06,294.925z"/>
<g>
	<path style="fill:#F4F6F9;" d="M430.154,216.797c-0.369-0.883-0.902-1.68-1.569-2.347l-87.356-87.356
		c-0.666-0.667-1.463-1.2-2.347-1.569c-0.88-0.368-1.83-0.566-2.803-0.566H88.56c-4.02,0-7.28,3.26-7.28,7.28v247.52
		c0,4.02,3.26,7.28,7.28,7.28h334.88c4.02,0,7.28-3.26,7.28-7.28v-160.16C430.72,218.628,430.522,217.678,430.154,216.797z
		 M343.36,149.814l62.506,62.506H343.36V149.814z M95.84,372.48V139.52H328.8v80.08c0,4.02,3.26,7.28,7.28,7.28h80.08v145.6H95.84z"
		/>
	<path style="fill:#F4F6F9;" d="M277.545,217.546c-0.832-2.826-3.281-4.87-6.21-5.183c-2.911-0.299-5.759,1.166-7.166,3.75
		l-39.02,71.538l-22.242-22.238c-1.657-1.653-4.031-2.417-6.314-2.041c-2.31,0.377-4.298,1.838-5.346,3.932l-36.4,72.8
		c-1.126,2.257-1.006,4.938,0.32,7.085c1.326,2.143,3.668,3.452,6.192,3.452h145.6c2.293,0,4.454-1.081,5.829-2.918
		c1.372-1.838,1.803-4.215,1.155-6.416L277.545,217.546z M173.14,336.08l26.614-53.231l21.979,21.979
		c1.625,1.625,3.91,2.374,6.186,2.059c2.271-0.327,4.255-1.707,5.354-3.718l35.263-64.653l28.697,97.566H173.14V336.08z"/>
	<path style="fill:#F4F6F9;" d="M183.2,222.003c16.057,0,29.12-13.063,29.12-29.12c0-16.057-13.063-29.12-29.12-29.12
		s-29.12,13.063-29.12,29.12S167.143,222.003,183.2,222.003z M183.2,178.323c8.03,0,14.56,6.53,14.56,14.56
		c0,8.03-6.53,14.56-14.56,14.56c-8.03,0-14.56-6.53-14.56-14.56C168.64,184.853,175.17,178.323,183.2,178.323z"/>
</g>
</svg>